<mxfile host="app.diagrams.net" agent="Mozilla/5.0 (Windows NT 10.0; Win64; x64) AppleWebKit/537.36 (KHTML, like Gecko) Chrome/131.0.0.0 Safari/537.36" version="25.0.3">
  <diagram name="Pàgina-1" id="J5MT5u0cnqmtdoeKDXBp">
    <mxGraphModel grid="1" page="1" gridSize="10" guides="1" tooltips="1" connect="1" arrows="1" fold="1" pageScale="1" pageWidth="827" pageHeight="1169" math="0" shadow="0">
      <root>
        <mxCell id="0" />
        <mxCell id="1" parent="0" />
        <mxCell id="YXg3RXzkXv0lA5UJ_R8Q-2" value="Habitacio" style="swimlane;fontStyle=0;align=center;verticalAlign=top;childLayout=stackLayout;horizontal=1;startSize=26;horizontalStack=0;resizeParent=1;resizeLast=0;collapsible=1;marginBottom=0;rounded=0;shadow=0;strokeWidth=1;" vertex="1" parent="1">
          <mxGeometry x="-332" y="390.01" width="160" height="69.99" as="geometry">
            <mxRectangle x="230" y="140" width="160" height="26" as="alternateBounds" />
          </mxGeometry>
        </mxCell>
        <mxCell id="YXg3RXzkXv0lA5UJ_R8Q-3" value="- nom: String&#xa;" style="text;align=left;verticalAlign=top;spacingLeft=4;spacingRight=4;overflow=hidden;rotatable=0;points=[[0,0.5],[1,0.5]];portConstraint=eastwest;rounded=0;shadow=0;html=0;" vertex="1" parent="YXg3RXzkXv0lA5UJ_R8Q-2">
          <mxGeometry y="26" width="160" height="26" as="geometry" />
        </mxCell>
        <mxCell id="YXg3RXzkXv0lA5UJ_R8Q-8" value="MesuraHabitació" style="swimlane;fontStyle=0;childLayout=stackLayout;horizontal=1;startSize=30;horizontalStack=0;resizeParent=1;resizeParentMax=0;resizeLast=0;collapsible=1;marginBottom=0;whiteSpace=wrap;html=1;" vertex="1" parent="1">
          <mxGeometry x="-147" y="598.01" width="140" height="60" as="geometry" />
        </mxCell>
        <mxCell id="YXg3RXzkXv0lA5UJ_R8Q-9" value="- mesura: float" style="text;strokeColor=none;fillColor=none;align=left;verticalAlign=middle;spacingLeft=4;spacingRight=4;overflow=hidden;points=[[0,0.5],[1,0.5]];portConstraint=eastwest;rotatable=0;whiteSpace=wrap;html=1;" vertex="1" parent="YXg3RXzkXv0lA5UJ_R8Q-8">
          <mxGeometry y="30" width="140" height="30" as="geometry" />
        </mxCell>
        <mxCell id="YXg3RXzkXv0lA5UJ_R8Q-10" style="edgeStyle=orthogonalEdgeStyle;rounded=0;orthogonalLoop=1;jettySize=auto;html=1;exitX=0;exitY=0.267;exitDx=0;exitDy=0;entryX=0.5;entryY=1;entryDx=0;entryDy=0;exitPerimeter=0;" edge="1" parent="1" source="YXg3RXzkXv0lA5UJ_R8Q-9" target="YXg3RXzkXv0lA5UJ_R8Q-2">
          <mxGeometry relative="1" as="geometry">
            <mxPoint x="-22" y="460.01" as="targetPoint" />
            <mxPoint x="-62" y="675.01" as="sourcePoint" />
          </mxGeometry>
        </mxCell>
        <mxCell id="YXg3RXzkXv0lA5UJ_R8Q-11" value="*" style="edgeLabel;html=1;align=center;verticalAlign=middle;resizable=0;points=[];" connectable="0" vertex="1" parent="YXg3RXzkXv0lA5UJ_R8Q-10">
          <mxGeometry x="0.7411" y="4" relative="1" as="geometry">
            <mxPoint x="-16" y="-8" as="offset" />
          </mxGeometry>
        </mxCell>
        <mxCell id="YXg3RXzkXv0lA5UJ_R8Q-12" value="*" style="edgeLabel;html=1;align=center;verticalAlign=middle;resizable=0;points=[];" connectable="0" vertex="1" parent="YXg3RXzkXv0lA5UJ_R8Q-10">
          <mxGeometry x="-0.7619" y="1" relative="1" as="geometry">
            <mxPoint x="4" y="13" as="offset" />
          </mxGeometry>
        </mxCell>
        <mxCell id="YXg3RXzkXv0lA5UJ_R8Q-13" value="PuntAL&#39;Espai" style="swimlane;fontStyle=0;childLayout=stackLayout;horizontal=1;startSize=30;horizontalStack=0;resizeParent=1;resizeParentMax=0;resizeLast=0;collapsible=1;marginBottom=0;whiteSpace=wrap;html=1;" vertex="1" parent="1">
          <mxGeometry x="62.110000000000014" y="392.01" width="140" height="120" as="geometry" />
        </mxCell>
        <mxCell id="YXg3RXzkXv0lA5UJ_R8Q-14" value="x: float" style="text;strokeColor=none;fillColor=none;align=left;verticalAlign=middle;spacingLeft=4;spacingRight=4;overflow=hidden;points=[[0,0.5],[1,0.5]];portConstraint=eastwest;rotatable=0;whiteSpace=wrap;html=1;" vertex="1" parent="YXg3RXzkXv0lA5UJ_R8Q-13">
          <mxGeometry y="30" width="140" height="30" as="geometry" />
        </mxCell>
        <mxCell id="YXg3RXzkXv0lA5UJ_R8Q-15" value="y: float" style="text;strokeColor=none;fillColor=none;align=left;verticalAlign=middle;spacingLeft=4;spacingRight=4;overflow=hidden;points=[[0,0.5],[1,0.5]];portConstraint=eastwest;rotatable=0;whiteSpace=wrap;html=1;" vertex="1" parent="YXg3RXzkXv0lA5UJ_R8Q-13">
          <mxGeometry y="60" width="140" height="30" as="geometry" />
        </mxCell>
        <mxCell id="YXg3RXzkXv0lA5UJ_R8Q-16" value="z: float" style="text;strokeColor=none;fillColor=none;align=left;verticalAlign=middle;spacingLeft=4;spacingRight=4;overflow=hidden;points=[[0,0.5],[1,0.5]];portConstraint=eastwest;rotatable=0;whiteSpace=wrap;html=1;" vertex="1" parent="YXg3RXzkXv0lA5UJ_R8Q-13">
          <mxGeometry y="90" width="140" height="30" as="geometry" />
        </mxCell>
        <mxCell id="YXg3RXzkXv0lA5UJ_R8Q-17" style="edgeStyle=orthogonalEdgeStyle;rounded=0;orthogonalLoop=1;jettySize=auto;html=1;exitX=1;exitY=0.5;exitDx=0;exitDy=0;entryX=0.546;entryY=0.992;entryDx=0;entryDy=0;entryPerimeter=0;" edge="1" parent="YXg3RXzkXv0lA5UJ_R8Q-13" source="YXg3RXzkXv0lA5UJ_R8Q-15" target="YXg3RXzkXv0lA5UJ_R8Q-16">
          <mxGeometry relative="1" as="geometry">
            <Array as="points">
              <mxPoint x="160" y="75" />
              <mxPoint x="160" y="140" />
              <mxPoint x="77" y="140" />
            </Array>
          </mxGeometry>
        </mxCell>
        <mxCell id="YXg3RXzkXv0lA5UJ_R8Q-18" value="0..1" style="edgeLabel;html=1;align=center;verticalAlign=middle;resizable=0;points=[];" connectable="0" vertex="1" parent="YXg3RXzkXv0lA5UJ_R8Q-17">
          <mxGeometry x="-0.851" y="3" relative="1" as="geometry">
            <mxPoint x="-1" y="-12" as="offset" />
          </mxGeometry>
        </mxCell>
        <mxCell id="YXg3RXzkXv0lA5UJ_R8Q-19" value="0..3" style="edgeLabel;html=1;align=center;verticalAlign=middle;resizable=0;points=[];" connectable="0" vertex="1" parent="YXg3RXzkXv0lA5UJ_R8Q-17">
          <mxGeometry x="0.8405" y="-1" relative="1" as="geometry">
            <mxPoint x="-18" as="offset" />
          </mxGeometry>
        </mxCell>
        <mxCell id="YXg3RXzkXv0lA5UJ_R8Q-20" value="unit a" style="edgeLabel;html=1;align=center;verticalAlign=middle;resizable=0;points=[];rotation=90;" connectable="0" vertex="1" parent="YXg3RXzkXv0lA5UJ_R8Q-17">
          <mxGeometry x="-0.3379" y="2" relative="1" as="geometry">
            <mxPoint x="8" y="-2" as="offset" />
          </mxGeometry>
        </mxCell>
        <mxCell id="YXg3RXzkXv0lA5UJ_R8Q-22" style="rounded=0;orthogonalLoop=1;jettySize=auto;html=1;fontSize=12;startSize=8;endSize=8;dashed=1;edgeStyle=elbowEdgeStyle;entryX=0.993;entryY=-0.285;entryDx=0;entryDy=0;entryPerimeter=0;" edge="1" parent="1">
          <mxGeometry relative="1" as="geometry">
            <mxPoint x="169" y="532.01" as="sourcePoint" />
            <mxPoint x="-7.000000000000028" y="637.4599999999998" as="targetPoint" />
            <Array as="points">
              <mxPoint x="168.98000000000002" y="608.01" />
            </Array>
          </mxGeometry>
        </mxCell>
        <mxCell id="YXg3RXzkXv0lA5UJ_R8Q-24" value="Immoble" style="swimlane;fontStyle=0;align=center;verticalAlign=top;childLayout=stackLayout;horizontal=1;startSize=26;horizontalStack=0;resizeParent=1;resizeLast=0;collapsible=1;marginBottom=0;rounded=0;shadow=0;strokeWidth=1;" vertex="1" parent="1">
          <mxGeometry x="-590" y="395.01" width="160" height="59.99" as="geometry">
            <mxRectangle x="230" y="140" width="160" height="26" as="alternateBounds" />
          </mxGeometry>
        </mxCell>
        <mxCell id="YXg3RXzkXv0lA5UJ_R8Q-25" value="- adreça: String" style="text;align=left;verticalAlign=top;spacingLeft=4;spacingRight=4;overflow=hidden;rotatable=0;points=[[0,0.5],[1,0.5]];portConstraint=eastwest;rounded=0;shadow=0;html=0;" vertex="1" parent="YXg3RXzkXv0lA5UJ_R8Q-24">
          <mxGeometry y="26" width="160" height="26" as="geometry" />
        </mxCell>
        <mxCell id="YXg3RXzkXv0lA5UJ_R8Q-30" value="1" style="endArrow=open;html=1;endSize=12;startArrow=diamondThin;startSize=14;startFill=1;align=left;verticalAlign=bottom;rounded=0;fontSize=12;exitX=1;exitY=0.5;exitDx=0;exitDy=0;entryX=0;entryY=0.5;entryDx=0;entryDy=0;" edge="1" parent="1" source="YXg3RXzkXv0lA5UJ_R8Q-24" target="YXg3RXzkXv0lA5UJ_R8Q-2">
          <mxGeometry x="-1" y="3" relative="1" as="geometry">
            <mxPoint x="-430" y="432" as="sourcePoint" />
            <mxPoint x="-310" y="430" as="targetPoint" />
          </mxGeometry>
        </mxCell>
      </root>
    </mxGraphModel>
  </diagram>
</mxfile>
